<svg width="1269" height="387" viewBox="0 0 1269 387" fill="none" xmlns="http://www.w3.org/2000/svg">
<rect width="1269" height="387" rx="29" fill="#F5F5F5"/>
<g filter="url(#filter0_i_238_383)">
<path d="M1111.3 167.602L1111.28 167.576C1106.46 162.483 1100.69 160.001 1093.67 160.001C1086.64 160.001 1080.76 162.488 1075.76 167.626L1111.3 167.602ZM1111.3 167.602L1111.33 167.627M1111.3 167.602L1111.33 167.627M1111.33 167.627C1116.14 172.574 1118.8 179.522 1118.8 189.087C1118.8 198.653 1116.14 205.6 1111.33 210.547L1111.3 210.573M1111.33 167.627L1111.3 210.573M1111.3 210.573L1111.28 210.598M1111.3 210.573L1111.28 210.598M1111.28 210.598C1106.46 215.691 1100.69 218.173 1093.67 218.173C1086.66 218.173 1080.8 215.702 1075.81 210.597C1071.12 205.474 1068.53 198.407 1068.53 188.84C1068.53 179.231 1071.14 172.384 1075.76 167.627L1111.28 210.598ZM430.815 258V263H435.815H500.776C519.562 263 536.279 259.24 550.779 251.555C565.425 243.881 576.759 233.007 584.656 218.976C592.708 204.964 596.672 189.026 596.672 171.303C596.672 153.432 592.715 137.484 584.65 123.619C576.759 109.605 565.518 98.7336 551.036 91.0566L548.694 95.4742L551.036 91.0566C536.527 83.365 519.722 79.6062 500.776 79.6062H435.815H430.815V84.6062V258ZM760.667 122.131L763.626 115.174H756.066H710.371H706.879L705.677 118.453L678.737 191.906L651.582 118.441L650.374 115.174H646.892H599.715H592.184L595.107 122.115L650.33 253.239L619.609 321.401L616.43 328.455H624.168H669.616H672.923L674.217 325.412L760.667 122.131ZM795.151 255.734L795.165 255.741L795.179 255.749C806.837 261.931 819.839 264.976 834.077 264.976C848.309 264.976 861.306 261.934 872.961 255.757C884.815 249.561 894.149 240.673 900.88 229.162C907.806 217.436 911.201 204.026 911.201 189.087C911.201 174.172 907.9 160.848 901.139 149.278C894.422 137.62 885.18 128.636 873.47 122.426C861.812 116.244 848.809 113.198 834.571 113.198C820.333 113.198 807.331 116.244 795.673 122.426C783.963 128.636 774.721 137.62 768.005 149.278C761.243 160.848 757.941 174.172 757.941 189.087C757.941 204.138 761.148 217.532 767.735 229.105L767.749 229.13L767.764 229.155C774.475 240.635 783.622 249.526 795.151 255.734ZM850.993 211.043L850.968 211.069L850.943 211.095C846.278 216.035 840.754 218.42 834.077 218.42C827.418 218.42 822.014 216.05 817.536 211.179C813.365 206.47 810.919 199.354 810.919 189.087C810.919 178.636 813.455 171.588 817.708 167.076L817.732 167.051L817.756 167.025C822.218 162.158 827.702 159.754 834.571 159.754C841.244 159.754 846.656 162.134 851.14 167.025L851.165 167.052L851.19 167.079C855.641 171.792 858.223 178.872 858.223 189.087C858.223 199.266 855.579 206.326 850.993 211.043ZM1010.43 222.185V217.185H1005.43H990.359C986.17 217.185 984.443 216.319 983.857 215.782C983.359 215.326 982.515 214.036 982.515 210.576V160.248H1005.18H1010.18V155.248V120.174V115.174H1005.18H982.515V86.5822V81.5822H977.515H935.278H930.278V86.5822V115.174H918.482H913.482V120.174V155.248V160.248H918.482H930.278V210.082C930.278 227.774 934.741 241.724 944.809 250.63L944.829 250.648L944.85 250.666C954.599 259.102 967.847 263 983.937 263H1005.43H1010.43V258V222.185ZM1023.99 149.307L1023.97 149.335C1018.31 160.842 1015.55 174.055 1015.55 188.84C1015.55 203.628 1018.31 216.91 1023.96 228.566L1023.98 228.607L1024 228.648C1029.8 240.065 1037.7 249.084 1047.74 255.537L1047.76 255.554L1047.79 255.571C1057.83 261.847 1068.96 264.976 1081.07 264.976C1091.46 264.976 1100.79 262.859 1108.89 258.449C1112.53 256.502 1115.84 254.264 1118.8 251.731V258V263H1123.8H1166.04H1171.04V258V120.174V115.174H1166.04H1123.8H1118.8V120.174V126.274C1115.92 123.809 1112.69 121.627 1109.13 119.726C1101.04 115.315 1091.71 113.198 1081.32 113.198C1069.06 113.198 1057.84 116.32 1047.79 122.603C1037.72 128.898 1029.8 137.852 1024 149.28L1023.99 149.307ZM531.854 204.785C524.14 212.356 513.107 216.444 498.059 216.444H483.052V125.668H498.059C513.082 125.668 524.102 129.824 531.82 137.542C539.538 145.26 543.694 156.28 543.694 171.303C543.694 186.331 539.537 197.244 531.854 204.785Z" fill="#10B981" stroke="white" stroke-width="10"/>
<path d="M236.121 84.6062V118.445H190.179V258H147.942V118.445H102V84.6062H236.121Z" fill="black"/>
<path d="M299.556 143.145C304.496 135.571 310.671 129.643 318.081 125.361C325.491 120.915 333.724 118.692 342.781 118.692V163.399H331.172C320.633 163.399 312.729 165.705 307.46 170.315C302.19 174.761 299.556 182.665 299.556 194.027V258H257.319V120.174H299.556V143.145Z" fill="black"/>
<path d="M405.206 120.174V258H362.969V120.174H405.206Z" fill="black"/>
<path d="M241.121 84.6062V79.6062H236.121H102H97V84.6062V118.445V123.445H102H142.942V258V263H147.942H190.179H195.179V258V123.445H236.121H241.121V118.445V84.6062ZM347.781 118.692V113.692H342.781C332.878 113.692 323.76 116.132 315.544 121.052C311.544 123.367 307.881 126.117 304.556 129.29V120.174V115.174H299.556H257.319H252.319V120.174V258V263H257.319H299.556H304.556V258V194.027C304.556 183.207 307.098 177.162 310.684 174.137L310.718 174.108L310.752 174.078C314.746 170.584 321.252 168.399 331.172 168.399H342.781H347.781V163.399V118.692ZM410.206 120.174V115.174H405.206H362.969H357.969V120.174V258V263H362.969H405.206H410.206V258V120.174Z" stroke="white" stroke-width="10"/>
<path d="M195.271 216V211H190.271H148.072H143.072V216V258.2V263.2H148.072H190.271H195.271V258.2V216Z" fill="#10B981" stroke="white" stroke-width="10"/>
<path d="M384.171 59C369.757 59 358.072 70.6858 358.072 85.1C358.072 99.5142 369.757 111.2 384.171 111.2C398.586 111.2 410.271 99.5142 410.271 85.1C410.271 70.6858 398.586 59 384.171 59Z" fill="black" stroke="white" stroke-width="10"/>
</g>
<defs>
<filter id="filter0_i_238_383" x="92" y="54" width="1084.04" height="283.455" filterUnits="userSpaceOnUse" color-interpolation-filters="sRGB">
<feFlood flood-opacity="0" result="BackgroundImageFix"/>
<feBlend mode="normal" in="SourceGraphic" in2="BackgroundImageFix" result="shape"/>
<feColorMatrix in="SourceAlpha" type="matrix" values="0 0 0 0 0 0 0 0 0 0 0 0 0 0 0 0 0 0 127 0" result="hardAlpha"/>
<feOffset dy="4"/>
<feGaussianBlur stdDeviation="10"/>
<feComposite in2="hardAlpha" operator="arithmetic" k2="-1" k3="1"/>
<feColorMatrix type="matrix" values="0 0 0 0 1 0 0 0 0 1 0 0 0 0 1 0 0 0 0.25 0"/>
<feBlend mode="normal" in2="shape" result="effect1_innerShadow_238_383"/>
</filter>
</defs>
</svg>
